<?xml version="1.0" encoding="UTF-8"?>
<svg version="1.1" xmlns="http://www.w3.org/2000/svg" width="634" height="636">
<path d="M0 0 C209.22 0 418.44 0 634 0 C634 209.88 634 419.76 634 636 C424.78 636 215.56 636 0 636 C0 426.12 0 216.24 0 0 Z " fill="#E5E5E5" transform="translate(0,0)"/>
<path d="M0 0 C19.8 0 39.6 0 60 0 C60 13.2 60 26.4 60 40 C66.6 40 73.2 40 80 40 C80 53.2 80 66.4 80 80 C86.6 80 93.2 80 100 80 C100 86.6 100 93.2 100 100 C113.2 100 126.4 100 140 100 C140 93.4 140 86.8 140 80 C146.6 80 153.2 80 160 80 C160 66.8 160 53.6 160 40 C166.6 40 173.2 40 180 40 C180 26.8 180 13.6 180 0 C199.8 0 219.6 0 240 0 C240 6.6 240 13.2 240 20 C246.6 20 253.2 20 260 20 C260 39.8 260 59.6 260 80 C266.6 80 273.2 80 280 80 C280 106.4 280 132.8 280 160 C286.6 160 293.2 160 300 160 C300 179.8 300 199.6 300 220 C306.6 220 313.2 220 320 220 C320 239.8 320 259.6 320 280 C313.4 280 306.8 280 300 280 C300 306.4 300 332.8 300 360 C306.6 360 313.2 360 320 360 C320 399.6 320 439.2 320 480 C333.2 480 346.4 480 360 480 C360 499.8 360 519.6 360 540 C353.4 540 346.8 540 340 540 C340 546.6 340 553.2 340 560 C333.4 560 326.8 560 320 560 C320 566.6 320 573.2 320 580 C254 580 188 580 120 580 C120 573.4 120 566.8 120 560 C113.4 560 106.8 560 100 560 C100 553.4 100 546.8 100 540 C53.8 540 7.6 540 -40 540 C-40 533.4 -40 526.8 -40 520 C-46.6 520 -53.2 520 -60 520 C-60 513.4 -60 506.8 -60 500 C-66.6 500 -73.2 500 -80 500 C-80 453.8 -80 407.6 -80 360 C-73.4 360 -66.8 360 -60 360 C-60 333.6 -60 307.2 -60 280 C-66.6 280 -73.2 280 -80 280 C-80 260.2 -80 240.4 -80 220 C-73.4 220 -66.8 220 -60 220 C-60 200.2 -60 180.4 -60 160 C-53.4 160 -46.8 160 -40 160 C-40 133.6 -40 107.2 -40 80 C-33.4 80 -26.8 80 -20 80 C-20 60.2 -20 40.4 -20 20 C-13.4 20 -6.8 20 0 20 C0 13.4 0 6.8 0 0 Z " fill="#24192D" transform="translate(194,19)"/>
<path d="M0 0 C6.6 0 13.2 0 20 0 C20 13.2 20 26.4 20 40 C26.6 40 33.2 40 40 40 C40 53.2 40 66.4 40 80 C46.6 80 53.2 80 60 80 C60 86.6 60 93.2 60 100 C86.4 100 112.8 100 140 100 C140 93.4 140 86.8 140 80 C146.6 80 153.2 80 160 80 C160 66.8 160 53.6 160 40 C166.6 40 173.2 40 180 40 C180 26.8 180 13.6 180 0 C186.6 0 193.2 0 200 0 C200 6.6 200 13.2 200 20 C206.6 20 213.2 20 220 20 C220 39.8 220 59.6 220 80 C226.6 80 233.2 80 240 80 C240 106.4 240 132.8 240 160 C246.6 160 253.2 160 260 160 C260 179.8 260 199.6 260 220 C266.6 220 273.2 220 280 220 C280 226.6 280 233.2 280 240 C273.4 240 266.8 240 260 240 C260 259.8 260 279.6 260 300 C154.4 300 48.8 300 -60 300 C-60 280.2 -60 260.4 -60 240 C-66.6 240 -73.2 240 -80 240 C-80 233.4 -80 226.8 -80 220 C-73.4 220 -66.8 220 -60 220 C-60 200.2 -60 180.4 -60 160 C-53.4 160 -46.8 160 -40 160 C-40 133.6 -40 107.2 -40 80 C-33.4 80 -26.8 80 -20 80 C-20 60.2 -20 40.4 -20 20 C-13.4 20 -6.8 20 0 20 C0 13.4 0 6.8 0 0 Z " fill="#FAF4E2" transform="translate(214,39)"/>
<path d="M0 0 C105.6 0 211.2 0 320 0 C320 0.33 320 0.66 320 1 C313.4 1 306.8 1 300 1 C300 7.27 300 13.54 300 20 C293.4 20 286.8 20 280 20 C280 26.6 280 33.2 280 40 C293.2 40 306.4 40 320 40 C320 46.6 320 53.2 320 60 C326.6 60 333.2 60 340 60 C340 93 340 126 340 160 C333.4 160 326.8 160 320 160 C320 166.6 320 173.2 320 180 C313.73 180 307.46 180 301 180 C301 186.6 301 193.2 301 200 C267.34 200 233.68 200 199 200 C199 193.4 199 186.8 199 180 C192.73 180 186.46 180 180 180 C180 173.4 180 166.8 180 160 C193.2 160 206.4 160 220 160 C220 153.4 220 146.8 220 140 C180.4 140 140.8 140 100 140 C100 146.93 100 153.86 100 161 C112.87 161 125.74 161 139 161 C139 166.94 139 172.88 139 179 C132.73 179 126.46 179 120 179 C120 185.93 120 192.86 120 200 C86.67 200 53.34 200 19 200 C19 193.4 19 186.8 19 180 C12.73 180 6.46 180 0 180 C0 173.4 0 166.8 0 160 C-6.6 160 -13.2 160 -20 160 C-20 127 -20 94 -20 60 C-13.4 60 -6.8 60 0 60 C0 53.4 0 46.8 0 40 C13.2 40 26.4 40 40 40 C40 33.4 40 26.8 40 20 C33.4 20 26.8 20 20 20 C20 13.73 20 7.46 20 1 C13.4 1 6.8 1 0 1 C0 0.67 0 0.34 0 0 Z " fill="#142C5D" transform="translate(154,339)"/>
<path d="M0 0 C66 0 132 0 200 0 C200 13.53 200 27.06 200 41 C193.4 41 186.8 41 180 41 C180 47.27 180 53.54 180 60 C167.13 60 154.26 60 141 60 C141 66.6 141 73.2 141 80 C113.94 80 86.88 80 59 80 C59 73.4 59 66.8 59 60 C46.13 60 33.26 60 20 60 C20 53.4 20 46.8 20 40 C13.4 40 6.8 40 0 40 C0 26.8 0 13.6 0 0 Z " fill="#C6A28E" transform="translate(214,219)"/>
<path d="M0 0 C6.6 0 13.2 0 20 0 C20 13.2 20 26.4 20 40 C26.6 40 33.2 40 40 40 C40 53.2 40 66.4 40 80 C46.6 80 53.2 80 60 80 C60 86.6 60 93.2 60 100 C59.67 100 59.34 100 59 100 C59 93.73 59 87.46 59 81 C52.73 81 46.46 81 40 81 C40 100.47 40 119.94 40 140 C26.8 140 13.6 140 0 140 C0 146.6 0 153.2 0 160 C-6.6 160 -13.2 160 -20 160 C-20 166.6 -20 173.2 -20 180 C-32.87 180 -45.74 180 -59 180 C-59 193.2 -59 206.4 -59 220 C-59.33 220 -59.66 220 -60 220 C-60 200.2 -60 180.4 -60 160 C-53.4 160 -46.8 160 -40 160 C-40 133.6 -40 107.2 -40 80 C-33.4 80 -26.8 80 -20 80 C-20 60.2 -20 40.4 -20 20 C-13.4 20 -6.8 20 0 20 C0 13.4 0 6.8 0 0 Z " fill="#C5A28D" transform="translate(214,39)"/>
<path d="M0 0 C6.6 0 13.2 0 20 0 C20 26.4 20 52.8 20 80 C26.6 80 33.2 80 40 80 C40 99.8 40 119.6 40 140 C46.6 140 53.2 140 60 140 C60 146.6 60 153.2 60 160 C53.4 160 46.8 160 40 160 C40 179.8 40 199.6 40 220 C-65.6 220 -171.2 220 -280 220 C-280 213.4 -280 206.8 -280 200 C-260.2 200 -240.4 200 -220 200 C-220 206.27 -220 212.54 -220 219 C-134.53 219 -49.06 219 39 219 C39 206.13 39 193.26 39 180 C32.73 180 26.46 180 20 180 C20 166.8 20 153.6 20 140 C13.4 140 6.8 140 0 140 C0 120.2 0 100.4 0 80 C-6.6 80 -13.2 80 -20 80 C-20 73.4 -20 66.8 -20 60 C-7.13 60 5.74 60 19 60 C19 40.53 19 21.06 19 1 C12.73 1 6.46 1 0 1 C0 0.67 0 0.34 0 0 Z " fill="#C5A491" transform="translate(434,119)"/>
<path d="M0 0 C13.2 0 26.4 0 40 0 C40 6.6 40 13.2 40 20 C33.4 20 26.8 20 20 20 C20 26.6 20 33.2 20 40 C13.4 40 6.8 40 0 40 C0 46.6 0 53.2 0 60 C-59.4 60 -118.8 60 -180 60 C-180 53.4 -180 46.8 -180 40 C-127.2 40 -74.4 40 -20 40 C-20 33.4 -20 26.8 -20 20 C-13.4 20 -6.8 20 0 20 C0 13.4 0 6.8 0 0 Z " fill="#F6F0DF" transform="translate(494,519)"/>
<path d="M0 0 C6.6 0 13.2 0 20 0 C20 13.2 20 26.4 20 40 C7.13 40 -5.74 40 -19 40 C-19 46.6 -19 53.2 -19 60 C-6.13 60 6.74 60 20 60 C20 66.6 20 73.2 20 80 C6.8 80 -6.4 80 -20 80 C-20 73.73 -20 67.46 -20 61 C-26.6 61 -33.2 61 -40 61 C-40 54.07 -40 47.14 -40 40 C-46.6 40 -53.2 40 -60 40 C-60 33.4 -60 26.8 -60 20 C-53.07 20 -46.14 20 -39 20 C-39 26.27 -39 32.54 -39 39 C-32.73 39 -26.46 39 -20 39 C-20 32.73 -20 26.46 -20 20 C-13.4 20 -6.8 20 0 20 C0 13.4 0 6.8 0 0 Z " fill="#6F788F" transform="translate(314,399)"/>
<path d="M0 0 C13.2 0 26.4 0 40 0 C40 6.6 40 13.2 40 20 C46.6 20 53.2 20 60 20 C60 26.6 60 33.2 60 40 C33.6 40 7.2 40 -20 40 C-20 33.4 -20 26.8 -20 20 C-13.4 20 -6.8 20 0 20 C0 13.4 0 6.8 0 0 Z " fill="#C3A08C" transform="translate(294,259)"/>
<path d="M0 0 C33 0 66 0 100 0 C100 6.6 100 13.2 100 20 C67 20 34 20 0 20 C0 13.4 0 6.8 0 0 Z " fill="#C58574" transform="translate(354,519)"/>
<path d="M0 0 C33 0 66 0 100 0 C100 6.6 100 13.2 100 20 C67 20 34 20 0 20 C0 13.4 0 6.8 0 0 Z " fill="#C58574" transform="translate(174,519)"/>
<path d="M0 0 C13.2 0 26.4 0 40 0 C40 13.2 40 26.4 40 40 C26.8 40 13.6 40 0 40 C0 26.8 0 13.6 0 0 Z " fill="#251A2D" transform="translate(374,219)"/>
<path d="M0 0 C13.2 0 26.4 0 40 0 C40 13.2 40 26.4 40 40 C26.8 40 13.6 40 0 40 C0 26.8 0 13.6 0 0 Z " fill="#251A2D" transform="translate(214,219)"/>
<path d="M0 0 C6.6 0 13.2 0 20 0 C20 13.2 20 26.4 20 40 C26.6 40 33.2 40 40 40 C40 46.6 40 53.2 40 60 C26.8 60 13.6 60 0 60 C0 40.2 0 20.4 0 0 Z " fill="#CC8C79" transform="translate(394,99)"/>
<path d="M0 0 C6.6 0 13.2 0 20 0 C20 19.8 20 39.6 20 60 C6.8 60 -6.4 60 -20 60 C-20 53.4 -20 46.8 -20 40 C-13.4 40 -6.8 40 0 40 C0 26.8 0 13.6 0 0 Z " fill="#CA8976" transform="translate(214,99)"/>
<path d="M0 0 C13.2 0 26.4 0 40 0 C40 6.6 40 13.2 40 20 C33.4 20 26.8 20 20 20 C20 26.6 20 33.2 20 40 C13.4 40 6.8 40 0 40 C0 26.8 0 13.6 0 0 Z " fill="#6C768E" transform="translate(294,359)"/>
<path d="M0 0 C19.47 0 38.94 0 59 0 C59 6.6 59 13.2 59 20 C39.53 20 20.06 20 0 20 C0 13.4 0 6.8 0 0 Z " fill="#162E5E" transform="translate(295,439)"/>
<path d="M0 0 C13.2 0 26.4 0 40 0 C40 6.6 40 13.2 40 20 C33.4 20 26.8 20 20 20 C20 26.6 20 33.2 20 40 C13.4 40 6.8 40 0 40 C0 39.67 0 39.34 0 39 C6.27 39 12.54 39 19 39 C19 32.73 19 26.46 19 20 C12.73 20 6.46 20 0 20 C0 13.4 0 6.8 0 0 Z " fill="#C2A08D" transform="translate(494,519)"/>
<path d="M0 0 C13.2 0 26.4 0 40 0 C40 6.6 40 13.2 40 20 C26.8 20 13.6 20 0 20 C0 13.4 0 6.8 0 0 Z " fill="#271B2D" transform="translate(294,259)"/>
<path d="M0 0 C12.54 0 25.08 0 38 0 C38 5.94 38 11.88 38 18 C25.46 18 12.92 18 0 18 C0 12.06 0 6.12 0 0 Z " fill="#707990" transform="translate(295,460)"/>
<path d="M0 0 C6.6 0 13.2 0 20 0 C20 6.6 20 13.2 20 20 C13.4 20 6.8 20 0 20 C0 13.4 0 6.8 0 0 Z " fill="#6B758D" transform="translate(334,439)"/>
<path d="M0 0 C6.6 0 13.2 0 20 0 C20 6.6 20 13.2 20 20 C13.4 20 6.8 20 0 20 C0 13.4 0 6.8 0 0 Z " fill="#E7E9ED" transform="translate(274,439)"/>
<path d="M0 0 C6.6 0 13.2 0 20 0 C20 6.6 20 13.2 20 20 C13.4 20 6.8 20 0 20 C0 13.4 0 6.8 0 0 Z " fill="#6B758D" transform="translate(354,419)"/>
<path d="M0 0 C6.6 0 13.2 0 20 0 C20 6.6 20 13.2 20 20 C13.4 20 6.8 20 0 20 C0 13.4 0 6.8 0 0 Z " fill="#E6E9ED" transform="translate(254,419)"/>
<path d="M0 0 C6.6 0 13.2 0 20 0 C20 6.6 20 13.2 20 20 C13.4 20 6.8 20 0 20 C0 13.4 0 6.8 0 0 Z " fill="#2A1E31" transform="translate(334,279)"/>
<path d="M0 0 C6.6 0 13.2 0 20 0 C20 6.6 20 13.2 20 20 C13.4 20 6.8 20 0 20 C0 13.4 0 6.8 0 0 Z " fill="#2A1E31" transform="translate(274,279)"/>
<path d="M0 0 C6.6 0 13.2 0 20 0 C20 13.2 20 26.4 20 40 C7.13 40 -5.74 40 -19 40 C-19 46.6 -19 53.2 -19 60 C-6.13 60 6.74 60 20 60 C20 66.6 20 73.2 20 80 C6.8 80 -6.4 80 -20 80 C-20 73.73 -20 67.46 -20 61 C-26.6 61 -33.2 61 -40 61 C-40 60.67 -40 60.34 -40 60 C-33.4 60 -26.8 60 -20 60 C-20 53.4 -20 46.8 -20 40 C-26.6 40 -33.2 40 -40 40 C-40 33.4 -40 26.8 -40 20 C-39.67 20 -39.34 20 -39 20 C-39 26.27 -39 32.54 -39 39 C-32.73 39 -26.46 39 -20 39 C-20 32.73 -20 26.46 -20 20 C-13.4 20 -6.8 20 0 20 C0 13.4 0 6.8 0 0 Z M1 1 C0.67 7.27 0.34 13.54 0 20 C-9.405 20.495 -9.405 20.495 -19 21 C-19 26.94 -19 32.88 -19 39 C-6.46 39 6.08 39 19 39 C19 26.46 19 13.92 19 1 C13.06 1 7.12 1 1 1 Z M-19 61 C-19 66.94 -19 72.88 -19 79 C-6.46 79 6.08 79 19 79 C19 73.06 19 67.12 19 61 C6.46 61 -6.08 61 -19 61 Z " fill="#566381" transform="translate(314,399)"/>
</svg>
